<svg width="250" height="250" viewBox="0 0 250 250" fill="none" xmlns="http://www.w3.org/2000/svg">
<path d="M22.2215 55.5622C23.4673 53.7216 25.9694 53.2395 27.81 54.4853C29.6506 55.7312 30.1327 58.2333 28.8868 60.0739C16.0107 79.0965 9.02437 101.522 9.02437 125C9.02437 189.052 60.9484 240.976 125 240.976C189.052 240.976 240.976 189.052 240.976 125C240.976 60.9484 189.052 9.02437 125 9.02437C122.777 9.02437 120.976 7.22259 120.976 4.99998C120.976 2.77737 122.777 0.975586 125 0.975586C193.497 0.975586 249.024 56.5032 249.024 125C249.024 193.497 193.497 249.024 125 249.024C56.5032 249.024 0.975586 193.497 0.975586 125C0.975586 99.9008 8.45073 75.9064 22.2215 55.5622Z" fill="#F87070"/>
</svg>
